<svg width="409.99999999999994" height="409.99999999999994" xmlns="http://www.w3.org/2000/svg">

 <g>
  <title>background</title>
  <rect fill="none" id="canvas_background" height="412" width="412" y="-1" x="-1"/>
 </g>
 <g>
  <title>Layer 1</title>
  <ellipse stroke="#3a5199" ry="200" rx="200" id="svg_36" cy="205" cx="205" stroke-width="10" fill="none"/>
  <g stroke="null" id="svg_1">
   <g stroke="null" id="svg_2">
    <g stroke="null" id="svg_3">
     <g stroke="null" id="svg_4">
      <path stroke="null" id="svg_5" fill="#3A5199" d="m280.113705,89.121787c4.614,-9.920001 -0.206,-21.475486 -10.766,-25.80985c-10.56,-4.334364 -22.861,0.193515 -27.475,10.112576l-40.085,86.178127l54.949,-20.226092l23.377,-50.254761z"/>
     </g>
     <g stroke="null" id="svg_6">
      <polygon stroke="null" id="svg_7" fill="#9FC5F8" points="256.7376960515976,139.37655639648438 201.78869092464447,159.60264587402344 185.58570325374603,194.437255859375 240.5346931219101,174.211181640625 "/>
     </g>
     <g stroke="null" id="svg_8">
      <polygon stroke="null" id="svg_9" fill="#3A5199" points="240.5346931219101,174.211181640625 185.58570325374603,194.437255859375 177.93468701839447,210.8860321044922 232.8836921453476,190.65994262695312 "/>
     </g>
     <g stroke="null" id="svg_10">
      <polygon stroke="null" id="svg_11" fill="#9FC5F8" points="232.8836921453476,190.65994262695312 177.93468701839447,210.8860321044922 161.95670545101166,245.23687744140625 216.90569531917572,225.01080322265625 "/>
     </g>
     <g stroke="null" id="svg_12">
      <path stroke="null" id="svg_13" fill="#3A5199" d="m161.956705,245.236859l-31.477,67.672066c-4.614,9.920001 0.206,21.475486 10.766,25.80985s22.861,-0.193515 27.475,-10.112576l48.186,-103.594492l-54.95,20.225153z"/>
     </g>
    </g>
    <g stroke="null" id="svg_14">
     <g stroke="null" id="svg_15">
      <path stroke="null" id="svg_16" fill="#3A5199" d="m130.479705,89.121787c-4.614,-9.920001 0.206,-21.475486 10.766,-25.80985s22.861,0.193515 27.475,10.112576l40.085,86.178127l-54.95,-20.226092l-23.376,-50.254761z"/>
     </g>
     <g stroke="null" id="svg_17">
      <polygon stroke="null" id="svg_18" fill="#9FC5F8" points="153.8556922674179,139.37655639648438 208.80469739437103,159.60264587402344 225.00770032405853,194.437255859375 170.05768811702728,174.211181640625 "/>
     </g>
     <g stroke="null" id="svg_19">
      <polygon stroke="null" id="svg_20" fill="#3A5199" points="170.05768811702728,174.211181640625 225.00770032405853,194.437255859375 232.65870130062103,210.8860321044922 177.7096961736679,190.65994262695312 "/>
     </g>
     <g stroke="null" id="svg_21">
      <polygon stroke="null" id="svg_22" fill="#9FC5F8" points="177.7096961736679,190.65994262695312 232.65870130062103,210.8860321044922 248.6366981267929,245.23687744140625 193.68769299983978,225.01080322265625 "/>
     </g>
     <g stroke="null" id="svg_23">
      <path stroke="null" id="svg_24" fill="#3A5199" d="m248.636705,245.236859l31.477,67.672066c4.614,9.920001 -0.206,21.475486 -10.766,25.80985c-10.56,4.334364 -22.861,-0.193515 -27.475,-10.112576l-48.186,-103.594492l54.95,20.225153z"/>
     </g>
     <g stroke="null" id="svg_25" opacity="0.26">
      <path stroke="null" id="svg_26" fill="#3A5199" d="m280.113705,312.908925l-31.477,-67.672066l-10.347,-3.808303l31.221,67.121581c4.614,9.920001 -0.206,21.475486 -10.766,25.80985c-3.62,1.486121 -7.44,1.907909 -11.09,1.450424c5.876,4.587061 14.214,5.978303 21.692,2.908364c10.562,-4.335303 15.381,-15.890789 10.767,-25.80985z"/>
     </g>
    </g>
    <g stroke="null" id="svg_27" opacity="0.26">
     <g stroke="null" id="svg_28">
      <path stroke="null" id="svg_29" fill="#3A5199" d="m134.946705,70.784816c10.56,-4.334364 22.861,0.193515 27.475,10.112576l34.59,74.364308l11.793,4.34094l-40.085,-86.178127c-4.614,-9.920001 -16.915,-14.44788 -27.475,-10.112576c-4.931,2.024394 -8.589,5.631667 -10.641,9.904031c1.316,-0.947849 2.756,-1.779212 4.343,-2.431152z"/>
     </g>
     <g stroke="null" id="svg_30">
      <polygon stroke="null" id="svg_31" fill="#3A5199" points="218.7096961736679,201.91012573242188 220.8657020330429,206.54605102539062 232.65870130062103,210.8860321044922 225.00770032405853,194.437255859375 213.2147010564804,190.09628295898438 "/>
     </g>
    </g>
    <g stroke="null" id="svg_32">
     <path stroke="null" id="svg_33" fill="#434A54" class="active-path" d="m102.128705,330.158078l-9.944,0l0,-263.190019c0,-2.063849 -1.781,-3.736909 -3.978,-3.736909l-0.994,0c-2.197,0 -3.978,1.673061 -3.978,3.736909l0,263.190019l-9.944,0c-1.648,0 -2.983,1.25503 -2.983,2.802212c0,1.548121 1.336,2.802212 2.983,2.802212l9.944,0l0,1.167667c0,2.063849 1.781,3.736909 3.978,3.736909l0.994,0c2.197,0 3.978,-1.673061 3.978,-3.736909l0,-1.167667l9.944,0c1.648,0 2.983,-1.25503 2.983,-2.802212c0,-1.547182 -1.336,-2.802212 -2.983,-2.802212z"/>
    </g>
    <g stroke="null" id="svg_34">
     <path stroke="null" id="svg_35" fill="#434A54" class="active-path" d="m339.042705,330.158078l-9.944,0l0,-263.190019c0,-2.063849 -1.781,-3.736909 -3.978,-3.736909l-0.994,0c-2.197,0 -3.978,1.673061 -3.978,3.736909l0,263.190019l-9.944,0c-1.648,0 -2.983,1.25503 -2.983,2.802212c0,1.548121 1.336,2.802212 2.983,2.802212l9.944,0l0,1.167667c0,2.063849 1.781,3.736909 3.978,3.736909l0.994,0c2.197,0 3.978,-1.673061 3.978,-3.736909l0,-1.167667l9.944,0c1.648,0 2.983,-1.25503 2.983,-2.802212c0,-1.547182 -1.336,-2.802212 -2.983,-2.802212z"/>
    </g>
   </g>
  </g>
 </g>
</svg>