<?xml version="1.0"?>
<svg xmlns="http://www.w3.org/2000/svg" xmlns:xlink="http://www.w3.org/1999/xlink" version="1.1" id="Capa_1" x="0px" y="0px" viewBox="0 0 297 297" style="enable-background:new 0 0 297 297;" xml:space="preserve" width="512px" height="512px" class=""><g><g>
	<g>
		<g>
			<path style="fill:#3A5199" d="M222.447,29.226c4.614-10.56-0.206-22.861-10.766-27.475c-10.56-4.614-22.861,0.206-27.475,10.765     l-40.085,91.738l54.949-21.531L222.447,29.226z" data-original="#1B394C" class="" data-old_color="#3a5199"/>
		</g>
		<g>
			<polygon style="fill:#9FC5F8" points="199.071,82.723 144.122,104.254 127.919,141.336 182.868,119.805    " data-original="#3099AA" class="" data-old_color="#9fc5f8"/>
		</g>
		<g>
			<polygon style="fill:#3A5199" points="182.868,119.805 127.919,141.336 120.268,158.846 175.217,137.315    " data-original="#1B394C" class="" data-old_color="#3a5199"/>
		</g>
		<g>
			<polygon style="fill:#9FC5F8" points="175.217,137.315 120.268,158.846 104.29,195.413 159.239,173.882    " data-original="#3099AA" class="" data-old_color="#9fc5f8"/>
		</g>
		<g>
			<path style="fill:#3A5199" d="M104.29,195.413l-31.477,72.038c-4.614,10.56,0.206,22.861,10.766,27.475     s22.861-0.206,27.475-10.765l48.186-110.278L104.29,195.413z" data-original="#1B394C" class="" data-old_color="#3a5199"/>
		</g>
	</g>
	<g>
		<g>
			<path style="fill:#3A5199" d="M72.813,29.226c-4.614-10.56,0.206-22.861,10.766-27.475s22.861,0.206,27.475,10.765     l40.085,91.738L96.189,82.723L72.813,29.226z" data-original="#345065" class="" data-old_color="#3a5199"/>
		</g>
		<g>
			<polygon style="fill:#9FC5F8" points="96.189,82.723 151.138,104.254 167.341,141.336 112.391,119.805    " data-original="#0EA6CB" class="" data-old_color="#9fc5f8"/>
		</g>
		<g>
			<polygon style="fill:#3A5199" points="112.391,119.805 167.341,141.336 174.992,158.846 120.043,137.315    " data-original="#345065" class="" data-old_color="#3a5199"/>
		</g>
		<g>
			<polygon style="fill:#9FC5F8" points="120.043,137.315 174.992,158.846 190.97,195.413 136.021,173.882    " data-original="#0EA6CB" class="" data-old_color="#9fc5f8"/>
		</g>
		<g>
			<path style="fill:#3A5199" d="M190.97,195.413l31.477,72.038c4.614,10.56-0.206,22.861-10.766,27.475     c-10.56,4.614-22.861-0.206-27.475-10.765l-48.186-110.278L190.97,195.413z" data-original="#345065" class="" data-old_color="#3a5199"/>
		</g>
		<g style="opacity:0.26;">
			<path style="fill:#3A5199" d="M222.447,267.451l-31.477-72.038l-10.347-4.054l31.221,71.452     c4.614,10.56-0.206,22.861-10.766,27.475c-3.62,1.582-7.44,2.031-11.09,1.544c5.876,4.883,14.214,6.364,21.692,3.096     C222.242,290.311,227.061,278.01,222.447,267.451z" data-original="#345065" class="" data-old_color="#3a5199"/>
		</g>
	</g>
	<g style="opacity:0.26;">
		<g>
			<path style="fill:#3A5199" d="M77.28,9.706c10.56-4.614,22.861,0.206,27.475,10.765l34.59,79.162l11.793,4.621l-40.085-91.738     c-4.614-10.56-16.915-15.38-27.475-10.765c-4.931,2.155-8.589,5.995-10.641,10.543C74.253,11.285,75.693,10.4,77.28,9.706z" data-original="#345065" class="" data-old_color="#3a5199"/>
		</g>
		<g>
			<polygon style="fill:#3A5199" points="161.043,149.291 163.199,154.226 174.992,158.846 167.341,141.336 155.548,136.715    " data-original="#345065" class="" data-old_color="#3a5199"/>
		</g>
	</g>
	<g>
		<path style="fill:#434A54" d="M44.462,285.813h-9.944V5.643c0-2.197-1.781-3.978-3.978-3.978h-0.994    c-2.197,0-3.978,1.781-3.978,3.978v280.17h-9.944c-1.648,0-2.983,1.336-2.983,2.983c0,1.648,1.336,2.983,2.983,2.983h9.944v1.243    c0,2.197,1.781,3.978,3.978,3.978h0.994c2.197,0,3.978-1.781,3.978-3.978v-1.243h9.944c1.648,0,2.983-1.336,2.983-2.983    C47.445,287.149,46.109,285.813,44.462,285.813z" data-original="#32373B" class="active-path" data-old_color="#3A5199"/>
	</g>
	<g>
		<path style="fill:#434A54" d="M281.376,285.813h-9.944V5.643c0-2.197-1.781-3.978-3.978-3.978h-0.994    c-2.197,0-3.978,1.781-3.978,3.978v280.17h-9.944c-1.648,0-2.983,1.336-2.983,2.983c0,1.648,1.336,2.983,2.983,2.983h9.944v1.243    c0,2.197,1.781,3.978,3.978,3.978h0.994c2.197,0,3.978-1.781,3.978-3.978v-1.243h9.944c1.648,0,2.983-1.336,2.983-2.983    C284.359,287.149,283.023,285.813,281.376,285.813z" data-original="#32373B" class="active-path" data-old_color="#3A5199"/>
	</g>
</g></g> </svg>
