<?xml version="1.0" encoding="iso-8859-1"?>
<!-- Generator: Adobe Illustrator 17.1.0, SVG Export Plug-In . SVG Version: 6.00 Build 0)  -->
<!DOCTYPE svg PUBLIC "-//W3C//DTD SVG 1.1//EN" "http://www.w3.org/Graphics/SVG/1.1/DTD/svg11.dtd">
<svg version="1.1" id="Capa_1" xmlns="http://www.w3.org/2000/svg" xmlns:xlink="http://www.w3.org/1999/xlink" x="0px" y="0px"
	 viewBox="0 0 444 444" style="enable-background:new 0 0 444 444;" xml:space="preserve">
<g>
	<path d="M417.034,26.966C399.645,9.577,376.524,0,351.932,0C327.34,0,304.22,9.577,286.83,26.966
		c-14.701,14.702-31.213,34.869-48.695,56.22c-21.481,26.237-45.83,55.975-72.402,82.547c-26.572,26.573-56.31,50.921-82.547,72.402
		c-21.352,17.481-41.519,33.994-56.22,48.695c-35.897,35.897-35.897,94.307,0,130.204C44.356,434.423,67.476,444,92.068,444
		c24.592,0,47.712-9.577,65.102-26.966c14.701-14.702,31.213-34.869,48.695-56.22c21.482-26.237,45.83-55.975,72.402-82.547
		c26.572-26.573,56.31-50.921,82.547-72.402c21.352-17.481,41.518-33.994,56.22-48.695
		C452.931,121.272,452.931,62.863,417.034,26.966z M402.892,143.027c-13.999,13.999-33.792,30.205-54.748,47.363
		c-26.598,21.777-56.744,46.459-84.02,73.734c-27.275,27.276-51.958,57.422-73.734,84.02
		c-17.158,20.956-33.364,40.749-47.362,54.748C129.415,416.503,111.318,424,92.068,424s-37.348-7.497-50.959-21.108
		c-28.099-28.099-28.099-73.82,0-101.919c13.999-13.999,33.792-30.205,54.748-47.363c26.598-21.777,56.744-46.459,84.02-73.734
		c27.275-27.276,51.958-57.422,73.734-84.02c17.158-20.956,33.364-40.749,47.362-54.748C314.585,27.497,332.682,20,351.932,20
		c19.25,0,37.348,7.497,50.96,21.108C430.991,69.207,430.991,114.928,402.892,143.027z"/>
	<path d="M296.246,163.038c-3.472,0-6.737,1.352-9.192,3.808s-3.808,5.72-3.808,9.192c0,3.473,1.353,6.738,3.806,9.19
		c2.456,2.457,5.721,3.81,9.194,3.81c3.473,0,6.737-1.353,9.192-3.808c5.068-5.067,5.069-13.314-0.001-18.386
		C302.982,164.39,299.718,163.038,296.246,163.038z"/>
	<path d="M119.47,283.246c-3.473,0-6.737,1.353-9.193,3.808c-5.067,5.068-5.068,13.315,0.001,18.386
		c2.456,2.455,5.72,3.806,9.191,3.806c3.472,0,6.737-1.352,9.194-3.809c5.066-5.068,5.066-13.315-0.001-18.382
		C126.208,284.599,122.943,283.246,119.47,283.246z"/>
	<path d="M147.754,311.531c-3.472,0-6.736,1.352-9.193,3.807c-5.067,5.068-5.068,13.315,0.001,18.386
		c2.456,2.455,5.72,3.806,9.191,3.806c3.472,0,6.737-1.352,9.192-3.807c2.455-2.456,3.808-5.72,3.808-9.193
		c0-3.473-1.353-6.738-3.808-9.192C154.491,312.883,151.226,311.531,147.754,311.531z"/>
	<path d="M296.246,106.47c-3.472,0-6.737,1.352-9.191,3.806c-2.456,2.456-3.809,5.721-3.809,9.194c0,3.473,1.353,6.738,3.808,9.192
		c2.455,2.455,5.72,3.807,9.192,3.807c3.472,0,6.736-1.351,9.193-3.807c5.067-5.068,5.068-13.315-0.001-18.386
		C302.982,107.821,299.718,106.47,296.246,106.47z"/>
	<path d="M267.962,134.754c-3.473,0-6.737,1.352-9.192,3.807c-2.455,2.456-3.808,5.72-3.808,9.193c0,3.473,1.353,6.738,3.806,9.191
		c2.456,2.456,5.721,3.809,9.194,3.809c3.473,0,6.738-1.353,9.19-3.806c2.457-2.456,3.81-5.721,3.81-9.194
		c0-3.473-1.353-6.737-3.808-9.193C274.699,136.106,271.434,134.754,267.962,134.754z"/>
	<path d="M147.754,254.962c-3.473,0-6.737,1.353-9.192,3.808c-5.068,5.067-5.069,13.315,0.001,18.386
		c2.456,2.455,5.72,3.806,9.191,3.806c3.472,0,6.737-1.352,9.192-3.808s3.808-5.72,3.808-9.192c0-3.473-1.353-6.738-3.806-9.19
		C154.492,256.315,151.227,254.962,147.754,254.962z"/>
	<path d="M324.53,134.754c-3.472,0-6.737,1.352-9.194,3.809c-5.067,5.07-5.066,13.317,0.001,18.382
		c2.456,2.456,5.72,3.809,9.193,3.809c3.474,0,6.739-1.353,9.193-3.808c5.067-5.068,5.068-13.315-0.001-18.386
		C331.266,136.105,328.002,134.754,324.53,134.754z"/>
	<path d="M176.038,283.246c-3.472,0-6.737,1.352-9.193,3.808c-5.067,5.068-5.068,13.315,0.001,18.387
		c2.456,2.454,5.72,3.806,9.191,3.806c3.473,0,6.737-1.352,9.192-3.807c2.456-2.456,3.808-5.72,3.808-9.193
		c0-3.473-1.353-6.738-3.806-9.191C182.776,284.599,179.511,283.246,176.038,283.246z"/>
</g>
<g>
</g>
<g>
</g>
<g>
</g>
<g>
</g>
<g>
</g>
<g>
</g>
<g>
</g>
<g>
</g>
<g>
</g>
<g>
</g>
<g>
</g>
<g>
</g>
<g>
</g>
<g>
</g>
<g>
</g>
</svg>
