<svg width="760" height="760" xmlns="http://www.w3.org/2000/svg">

 <g>
  <title>background</title>
  <rect fill="none" id="canvas_background" height="762" width="762" y="-1" x="-1"/>
 </g>
 <g>
  <title>Layer 1</title>
  <g stroke="null" id="svg_1">
   <path stroke="null" stroke-width="20" id="svg_2" fill="#3A5199" d="m555.798827,126.081087c-21.14,-0.828 -40.732,6.671 -55.169,21.116c-0.172,0.172 -0.328,0.344 -0.484,0.516c-0.641,0.734 -65.621,74.762 -172.319,181.467c-106.651,106.658 -180.733,171.686 -181.467,172.326c-0.18,0.156 -0.359,0.328 -0.523,0.484c-14.437,14.437 -21.937,34.03 -21.108,55.169c0.82,20.827 9.656,40.67 24.881,55.903c31.647,31.655 81.48,33.343 111.057,3.75c0.172,-0.156 0.336,-0.344 0.492,-0.516c0.641,-0.734 65.606,-74.871 172.242,-181.521c106.65,-106.65 180.803,-171.615 181.537,-172.256c0.172,-0.156 0.359,-0.32 0.516,-0.492c29.592,-29.584 27.904,-79.41 -3.75,-111.064c-15.22,-15.234 -35.077,-24.062 -55.905,-24.882z"/>
   <g stroke="null" id="svg_3">
    <path stroke="null" stroke-width="20" id="svg_4" fill="#9FC5F8" d="m149.960827,498.319087c-2.281,2.031 -3.515,3.108 -3.601,3.187c-0.18,0.156 -0.359,0.328 -0.523,0.484c-14.437,14.437 -21.937,34.03 -21.108,55.169c0.82,20.827 9.656,40.67 24.881,55.903c31.647,31.655 81.48,33.343 111.057,3.75c0.172,-0.156 0.336,-0.344 0.492,-0.516c0.078,-0.094 1.156,-1.328 3.18,-3.608l-114.378,-114.369z"/>
    <path stroke="null" stroke-width="20" id="svg_5" fill="#9FC5F8" d="m611.342827,265.691087c2.281,-2.031 3.516,-3.109 3.609,-3.188c0.172,-0.156 0.344,-0.32 0.5,-0.484c14.452,-14.437 21.951,-34.029 21.123,-55.169c-0.812,-20.819 -9.655,-40.678 -24.873,-55.896c-31.654,-31.654 -81.496,-33.35 -111.057,-3.766c-0.188,0.172 -0.344,0.344 -0.5,0.531c-0.078,0.086 -1.156,1.312 -3.188,3.602l114.386,114.37z"/>
   </g>
   <g stroke="null" id="svg_6">
    <path stroke="null" stroke-width="20" id="svg_7" fill="#E6E9ED" d="m264.321827,423.182087c-2.945,2.937 -5.32,6.327 -7.062,10.046c-4.992,10.702 -4.25,23.593 2.031,35.326c5.828,10.905 15.874,20.108 28.279,25.89c9.07,4.234 17.625,8.218 26.296,9.624c11.366,1.828 21.131,-1.234 29.014,-9.124c4.156,-4.156 7.773,-9.594 11.054,-16.625c7.961,-17.092 7.734,-30.717 -0.711,-41.685c-6.898,-8.953 -17.913,-14.077 -29.592,-19.53c-21.717,-10.125 -45.551,-7.687 -59.309,6.078z"/>
    <path stroke="null" stroke-width="20" id="svg_8" fill="#E6E9ED" d="m467.366827,260.816087c-11.734,-6.281 -24.608,-7.015 -35.311,-2.023c-3.734,1.742 -7.109,4.109 -10.062,7.055c-13.749,13.765 -16.187,37.6 -6.062,59.317c5.438,11.663 10.578,22.694 19.531,29.584c10.951,8.445 24.592,8.68 41.669,0.711c7.03,-3.281 12.468,-6.898 16.64,-11.054l0,0c7.875,-7.891 10.953,-17.648 9.125,-29.007c-1.406,-8.671 -5.406,-17.233 -9.625,-26.303c-5.798,-12.406 -15,-22.452 -25.905,-28.28z"/>
   </g>
   <g stroke="null" id="svg_9">
    <path stroke="null" stroke-width="20" id="svg_10" fill="#434A54" class="active-path" d="m317.615827,416.292087l-0.008,-0.078c-3.062,0.438 -18.952,3.984 -31.342,30.545c-12.39,26.562 -4.883,41.014 -3.25,43.639l0.016,-0.016c0.414,0.672 0.906,1.312 1.492,1.906c4.164,4.156 10.921,4.156 15.085,0c3.445,-3.453 4.031,-8.656 1.789,-12.719c-1.188,-2.672 -1.789,-10.952 4.203,-23.795c5.765,-12.375 12.21,-17.328 15.194,-18.405c2.211,-0.312 4.343,-1.312 6.039,-3.016c4.172,-4.156 4.172,-10.905 0,-15.077c-2.507,-2.5 -5.96,-3.5 -9.218,-2.984zm-16.46,62.871c0.023,0.047 0.094,0.156 0.195,0.344c-0.062,-0.11 -0.124,-0.235 -0.195,-0.344z"/>
    <path stroke="null" stroke-width="20" id="svg_11" fill="#434A54" class="active-path" d="m417.930827,328.188087c4.156,4.164 10.906,4.164 15.062,0c1.719,-1.703 2.703,-3.835 3.016,-6.046c1.077,-2.977 6.046,-9.421 18.404,-15.187c12.859,-5.992 21.124,-5.391 23.796,-4.211c4.062,2.25 9.28,1.656 12.718,-1.781c4.156,-4.164 4.156,-10.921 0,-15.085c-0.594,-0.586 -1.219,-1.078 -1.906,-1.5l0.016,-0.016c-2.625,-1.625 -17.076,-9.132 -43.638,3.258c-26.562,12.382 -30.093,28.279 -30.53,31.342l0.062,0.008c-0.5,3.257 0.469,6.71 3,9.218zm60.216,-25.483c-0.188,-0.102 -0.312,-0.172 -0.344,-0.195c0.125,0.062 0.219,0.132 0.344,0.195z"/>
   </g>
   <ellipse stroke="#3A5199" ry="370" rx="370" id="svg_13" cy="380.000031" cx="380.000008" stroke-width="17" fill="none"/>
  </g>
 </g>
</svg>